<svg width="71" height="32" viewBox="0 0 71 32" fill="none" xmlns="http://www.w3.org/2000/svg">
<path fill-rule="evenodd" clip-rule="evenodd" d="M3.9999 4H7.99979V7.9999H3.9999V4ZM4 12.001H7.9999V16V16.0009V19.999V19.9999V23.9989H4V19.9999V19.999V16.0009V16V12.001ZM7.99986 8L4 8L0.000104904 8L0.000104729 11.9999L4 11.9999L7.99986 11.9999L7.9999 11.9999L11.9998 11.9999V8H7.9999L7.99986 8Z" fill="#FFE70B"/>
<path fill-rule="evenodd" clip-rule="evenodd" d="M21.3328 23.9996C22.7899 23.9996 24.1561 23.61 25.3328 22.9293V23.9996H29.3327V8H25.3328V9.07027C24.1561 8.38958 22.7899 8 21.3328 8C16.9146 8 13.333 11.5816 13.333 15.9998C13.333 20.418 16.9146 23.9996 21.3328 23.9996ZM21.3329 19.9998C23.542 19.9998 25.3328 18.209 25.3328 15.9999C25.3328 13.7908 23.542 12 21.3329 12C19.1238 12 17.333 13.7908 17.333 15.9999C17.333 18.209 19.1238 19.9998 21.3329 19.9998Z" fill="#FFE70B"/>
<path fill-rule="evenodd" clip-rule="evenodd" d="M54.6653 8H58.6652V9.07023C59.8418 8.38957 61.208 8 62.6651 8C67.0832 8 70.6649 11.5816 70.6649 15.9998C70.6649 20.418 67.0832 23.9996 62.6651 23.9996C61.208 23.9996 59.8418 23.61 58.6652 22.9294V31.9994H54.6653V15.9998V8ZM62.6652 19.9998C64.8743 19.9998 66.6651 18.209 66.6651 15.9999C66.6651 13.7908 64.8743 12 62.6652 12C60.4561 12 58.6653 13.7908 58.6653 15.9999C58.6653 18.209 60.4561 19.9998 62.6652 19.9998Z" fill="#FFE70B"/>
<path fill-rule="evenodd" clip-rule="evenodd" d="M51.9987 0H47.9988V3.9999H51.9987V0ZM51.9987 8H47.9988V23.9996H51.9987V8Z" fill="#FFE70B"/>
<path fill-rule="evenodd" clip-rule="evenodd" d="M31.9993 4H35.9992V13.5885L41.2405 8H46.6652L40.1226 14.9759L40.7188 15.6614L47.9722 24.0001H42.6708L37.3722 17.9086L35.9992 19.3725V23.9995H31.9993V4Z" fill="#FFE70B"/>
</svg>
